solid OpenSCAD_Model
  facet normal -0 0 1
    outer loop
      vertex 2.6 2.6 20
      vertex 23.7 0 20
      vertex 21.1 2.6 20
    endloop
  endfacet
  facet normal 0 0 1
    outer loop
      vertex 23.7 0 20
      vertex 2.6 2.6 20
      vertex 0 0 20
    endloop
  endfacet
  facet normal 0 1 -0
    outer loop
      vertex 21.1 2.6 0
      vertex 2.6 2.6 20
      vertex 21.1 2.6 20
    endloop
  endfacet
  facet normal 0 1 0
    outer loop
      vertex 2.6 2.6 20
      vertex 21.1 2.6 0
      vertex 2.6 2.6 0
    endloop
  endfacet
  facet normal 0 0 -1
    outer loop
      vertex 23.7 0 0
      vertex 2.6 2.6 0
      vertex 21.1 2.6 0
    endloop
  endfacet
  facet normal 0 -0 -1
    outer loop
      vertex 2.6 2.6 0
      vertex 23.7 0 0
      vertex 0 0 0
    endloop
  endfacet
  facet normal 0 -1 0
    outer loop
      vertex 0 0 0
      vertex 23.7 0 20
      vertex 0 0 20
    endloop
  endfacet
  facet normal 0 -1 -0
    outer loop
      vertex 23.7 0 20
      vertex 0 0 0
      vertex 23.7 0 0
    endloop
  endfacet
  facet normal -0.707107 0.707107 0
    outer loop
      vertex 0 0 0
      vertex 2.6 2.6 20
      vertex 2.6 2.6 0
    endloop
  endfacet
  facet normal -0.707107 0.707107 0
    outer loop
      vertex 2.6 2.6 20
      vertex 0 0 0
      vertex 0 0 20
    endloop
  endfacet
  facet normal 0.707107 0.707107 -0
    outer loop
      vertex 23.7 0 0
      vertex 21.1 2.6 20
      vertex 23.7 0 20
    endloop
  endfacet
  facet normal 0.707107 0.707107 0
    outer loop
      vertex 21.1 2.6 20
      vertex 23.7 0 0
      vertex 21.1 2.6 0
    endloop
  endfacet
endsolid OpenSCAD_Model
