solid OpenSCAD_Model
  facet normal 0 0 1
    outer loop
      vertex 21.25 5.6 20
      vertex 17.4 3.9 20
      vertex 21.25 2.6 20
    endloop
  endfacet
  facet normal 0 0 1
    outer loop
      vertex 21.25 5.6 20
      vertex 7.2 3.9 20
      vertex 17.4 3.9 20
    endloop
  endfacet
  facet normal 0 0 1
    outer loop
      vertex 3.25 2.6 20
      vertex 7.2 3.9 20
      vertex 3.25 5.6 20
    endloop
  endfacet
  facet normal -0 0 1
    outer loop
      vertex 3.25 5.6 20
      vertex 7.2 3.9 20
      vertex 21.25 5.6 20
    endloop
  endfacet
  facet normal -0 0 1
    outer loop
      vertex 21.25 2.6 20
      vertex 24.5 0 20
      vertex 21.9 2.6 20
    endloop
  endfacet
  facet normal -0 0 1
    outer loop
      vertex 17.4 3.1 20
      vertex 21.25 2.6 20
      vertex 17.4 3.9 20
    endloop
  endfacet
  facet normal 0 0 1
    outer loop
      vertex 21.25 2.6 20
      vertex 17.4 3.1 20
      vertex 24.5 0 20
    endloop
  endfacet
  facet normal -0 0 1
    outer loop
      vertex 7.2 3.1 20
      vertex 24.5 0 20
      vertex 17.4 3.1 20
    endloop
  endfacet
  facet normal 0 0 1
    outer loop
      vertex 7.2 3.9 20
      vertex 3.25 2.6 20
      vertex 7.2 3.1 20
    endloop
  endfacet
  facet normal 0 0 1
    outer loop
      vertex 0 0 20
      vertex 7.2 3.1 20
      vertex 3.25 2.6 20
    endloop
  endfacet
  facet normal 0 0 1
    outer loop
      vertex 0 0 20
      vertex 3.25 2.6 20
      vertex 2.6 2.6 20
    endloop
  endfacet
  facet normal 0 0 1
    outer loop
      vertex 7.2 3.1 20
      vertex 0 0 20
      vertex 24.5 0 20
    endloop
  endfacet
  facet normal 0 1 -0
    outer loop
      vertex 3.25 2.6 0
      vertex 2.6 2.6 20
      vertex 3.25 2.6 20
    endloop
  endfacet
  facet normal 0 1 0
    outer loop
      vertex 2.6 2.6 20
      vertex 3.25 2.6 0
      vertex 2.6 2.6 0
    endloop
  endfacet
  facet normal 0 1 -0
    outer loop
      vertex 21.9 2.6 0
      vertex 21.25 2.6 20
      vertex 21.9 2.6 20
    endloop
  endfacet
  facet normal 0 1 0
    outer loop
      vertex 21.25 2.6 20
      vertex 21.9 2.6 0
      vertex 21.25 2.6 0
    endloop
  endfacet
  facet normal 0 0 -1
    outer loop
      vertex 24.5 0 0
      vertex 21.25 2.6 0
      vertex 21.9 2.6 0
    endloop
  endfacet
  facet normal 0 0 -1
    outer loop
      vertex 21.25 2.6 0
      vertex 3.25 2.6 0
      vertex 21.25 5.6 0
    endloop
  endfacet
  facet normal 0 0 -1
    outer loop
      vertex 24.5 0 0
      vertex 3.25 2.6 0
      vertex 21.25 2.6 0
    endloop
  endfacet
  facet normal 0 0 -1
    outer loop
      vertex 0 0 0
      vertex 3.25 2.6 0
      vertex 24.5 0 0
    endloop
  endfacet
  facet normal -0 0 -1
    outer loop
      vertex 3.25 2.6 0
      vertex 0 0 0
      vertex 2.6 2.6 0
    endloop
  endfacet
  facet normal -0 0 -1
    outer loop
      vertex 21.25 5.6 0
      vertex 3.25 2.6 0
      vertex 3.25 5.6 0
    endloop
  endfacet
  facet normal 0 -1 0
    outer loop
      vertex 0 0 20
      vertex 10.25 0 9.9641
      vertex 24.5 0 20
    endloop
  endfacet
  facet normal 0 -1 0
    outer loop
      vertex 0 0 20
      vertex 10.0539 0 9.62448
      vertex 10.25 0 9.9641
    endloop
  endfacet
  facet normal 0 -1 0
    outer loop
      vertex 0 0 20
      vertex 8.25 0 6.5
      vertex 10.0539 0 9.62448
    endloop
  endfacet
  facet normal 0 -1 0
    outer loop
      vertex 0 0 0
      vertex 8.25 0 6.5
      vertex 0 0 20
    endloop
  endfacet
  facet normal 0 -1 -0
    outer loop
      vertex 8.25 0 6.5
      vertex 0 0 0
      vertex 8.44608 0 6.16038
    endloop
  endfacet
  facet normal 0 -1 -0
    outer loop
      vertex 10.25 0 3.0359
      vertex 0 0 0
      vertex 14.25 0 3.0359
    endloop
  endfacet
  facet normal 0 -1 -0
    outer loop
      vertex 8.44608 0 6.16038
      vertex 0 0 0
      vertex 10.25 0 3.0359
    endloop
  endfacet
  facet normal 0 -1 0
    outer loop
      vertex 14.25 0 9.9641
      vertex 24.5 0 20
      vertex 10.25 0 9.9641
    endloop
  endfacet
  facet normal 0 -1 0
    outer loop
      vertex 16.25 0 6.5
      vertex 24.5 0 20
      vertex 14.25 0 9.9641
    endloop
  endfacet
  facet normal 0 -1 0
    outer loop
      vertex 24.5 0 0
      vertex 16.25 0 6.5
      vertex 14.25 0 3.0359
    endloop
  endfacet
  facet normal 0 -1 0
    outer loop
      vertex 16.25 0 6.5
      vertex 24.5 0 0
      vertex 24.5 0 20
    endloop
  endfacet
  facet normal 0 -1 0
    outer loop
      vertex 24.5 0 0
      vertex 14.25 0 3.0359
      vertex 0 0 0
    endloop
  endfacet
  facet normal -0.707107 0.707107 0
    outer loop
      vertex 0 0 0
      vertex 2.6 2.6 20
      vertex 2.6 2.6 0
    endloop
  endfacet
  facet normal -0.707107 0.707107 0
    outer loop
      vertex 2.6 2.6 20
      vertex 0 0 0
      vertex 0 0 20
    endloop
  endfacet
  facet normal 0.707107 0.707107 -0
    outer loop
      vertex 24.5 0 0
      vertex 21.9 2.6 20
      vertex 24.5 0 20
    endloop
  endfacet
  facet normal 0.707107 0.707107 0
    outer loop
      vertex 21.9 2.6 20
      vertex 24.5 0 0
      vertex 21.9 2.6 0
    endloop
  endfacet
  facet normal 0 0 1
    outer loop
      vertex 24.1 8.2 20
      vertex 3 5.6 20
      vertex 21.5 5.6 20
    endloop
  endfacet
  facet normal 0 -0 1
    outer loop
      vertex 3 5.6 20
      vertex 24.1 8.2 20
      vertex 0.4 8.2 20
    endloop
  endfacet
  facet normal 0 -1 0
    outer loop
      vertex 3 5.6 20
      vertex 10.25 5.6 9.9641
      vertex 21.5 5.6 20
    endloop
  endfacet
  facet normal 0 -1 0
    outer loop
      vertex 3 5.6 20
      vertex 8.95588 5.6 7.72262
      vertex 10.25 5.6 9.9641
    endloop
  endfacet
  facet normal 0 -1 0
    outer loop
      vertex 3 5.6 20
      vertex 8.25 5.6 6.5
      vertex 8.95588 5.6 7.72262
    endloop
  endfacet
  facet normal 0 -1 0
    outer loop
      vertex 3 5.6 0
      vertex 9.54412 5.6 4.25852
      vertex 8.25 5.6 6.5
    endloop
  endfacet
  facet normal 0 -1 -0
    outer loop
      vertex 10.25 5.6 3.0359
      vertex 3 5.6 0
      vertex 14.25 5.6 3.0359
    endloop
  endfacet
  facet normal 0 -1 -0
    outer loop
      vertex 9.54412 5.6 4.25852
      vertex 3 5.6 0
      vertex 10.25 5.6 3.0359
    endloop
  endfacet
  facet normal 0 -1 0
    outer loop
      vertex 3 5.6 0
      vertex 8.25 5.6 6.5
      vertex 3 5.6 20
    endloop
  endfacet
  facet normal 0 -1 0
    outer loop
      vertex 14.25 5.6 9.9641
      vertex 21.5 5.6 20
      vertex 10.25 5.6 9.9641
    endloop
  endfacet
  facet normal 0 -1 0
    outer loop
      vertex 16.25 5.6 6.5
      vertex 21.5 5.6 20
      vertex 14.25 5.6 9.9641
    endloop
  endfacet
  facet normal 0 -1 0
    outer loop
      vertex 16.25 5.6 6.5
      vertex 21.5 5.6 0
      vertex 21.5 5.6 20
    endloop
  endfacet
  facet normal 0 -1 0
    outer loop
      vertex 14.25 5.6 3.0359
      vertex 21.5 5.6 0
      vertex 16.25 5.6 6.5
    endloop
  endfacet
  facet normal 0 -1 0
    outer loop
      vertex 21.5 5.6 0
      vertex 14.25 5.6 3.0359
      vertex 3 5.6 0
    endloop
  endfacet
  facet normal 0 0 -1
    outer loop
      vertex 3 5.6 0
      vertex 24.1 8.2 0
      vertex 21.5 5.6 0
    endloop
  endfacet
  facet normal -0 0 -1
    outer loop
      vertex 24.1 8.2 0
      vertex 3 5.6 0
      vertex 0.4 8.2 0
    endloop
  endfacet
  facet normal 0 1 0
    outer loop
      vertex 24.1 8.2 20
      vertex 14.25 8.2 9.9641
      vertex 0.4 8.2 20
    endloop
  endfacet
  facet normal 0 1 0
    outer loop
      vertex 24.1 8.2 20
      vertex 16.25 8.2 6.5
      vertex 14.25 8.2 9.9641
    endloop
  endfacet
  facet normal 0 1 -0
    outer loop
      vertex 24.1 8.2 0
      vertex 16.25 8.2 6.5
      vertex 24.1 8.2 20
    endloop
  endfacet
  facet normal 0 1 0
    outer loop
      vertex 14.25 8.2 3.0359
      vertex 24.1 8.2 0
      vertex 10.25 8.2 3.0359
    endloop
  endfacet
  facet normal 0 1 0
    outer loop
      vertex 16.25 8.2 6.5
      vertex 24.1 8.2 0
      vertex 14.25 8.2 3.0359
    endloop
  endfacet
  facet normal 0 1 -0
    outer loop
      vertex 10.25 8.2 9.9641
      vertex 0.4 8.2 20
      vertex 14.25 8.2 9.9641
    endloop
  endfacet
  facet normal 0 1 -0
    outer loop
      vertex 8.44608 8.2 6.83962
      vertex 0.4 8.2 20
      vertex 10.25 8.2 9.9641
    endloop
  endfacet
  facet normal 0 1 -0
    outer loop
      vertex 8.25 8.2 6.5
      vertex 0.4 8.2 20
      vertex 8.44608 8.2 6.83962
    endloop
  endfacet
  facet normal 0 1 0
    outer loop
      vertex 0.4 8.2 0
      vertex 8.25 8.2 6.5
      vertex 10.0539 8.2 3.37552
    endloop
  endfacet
  facet normal 0 1 0
    outer loop
      vertex 0.4 8.2 0
      vertex 10.0539 8.2 3.37552
      vertex 10.25 8.2 3.0359
    endloop
  endfacet
  facet normal 0 1 0
    outer loop
      vertex 8.25 8.2 6.5
      vertex 0.4 8.2 0
      vertex 0.4 8.2 20
    endloop
  endfacet
  facet normal 0 1 0
    outer loop
      vertex 0.4 8.2 0
      vertex 10.25 8.2 3.0359
      vertex 24.1 8.2 0
    endloop
  endfacet
  facet normal 0.707107 -0.707107 0
    outer loop
      vertex 21.5 5.6 0
      vertex 24.1 8.2 20
      vertex 21.5 5.6 20
    endloop
  endfacet
  facet normal 0.707107 -0.707107 0
    outer loop
      vertex 24.1 8.2 20
      vertex 21.5 5.6 0
      vertex 24.1 8.2 0
    endloop
  endfacet
  facet normal -0.707107 -0.707107 0
    outer loop
      vertex 3 5.6 0
      vertex 0.4 8.2 20
      vertex 0.4 8.2 0
    endloop
  endfacet
  facet normal -0.707107 -0.707107 0
    outer loop
      vertex 0.4 8.2 20
      vertex 3 5.6 0
      vertex 3 5.6 20
    endloop
  endfacet
  facet normal -1 0 0
    outer loop
      vertex 3.25 2.6 0
      vertex 3.25 5.6 20
      vertex 3.25 5.6 0
    endloop
  endfacet
  facet normal -1 -0 0
    outer loop
      vertex 3.25 5.6 20
      vertex 3.25 2.6 0
      vertex 3.25 2.6 20
    endloop
  endfacet
  facet normal 1 -0 0
    outer loop
      vertex 21.25 2.6 20
      vertex 21.25 5.6 0
      vertex 21.25 5.6 20
    endloop
  endfacet
  facet normal 1 0 0
    outer loop
      vertex 21.25 5.6 0
      vertex 21.25 2.6 20
      vertex 21.25 2.6 0
    endloop
  endfacet
  facet normal 0 1 0
    outer loop
      vertex 21.25 5.6 20
      vertex 14.25 5.6 9.9641
      vertex 3.25 5.6 20
    endloop
  endfacet
  facet normal 0 1 0
    outer loop
      vertex 21.25 5.6 20
      vertex 16.25 5.6 6.5
      vertex 14.25 5.6 9.9641
    endloop
  endfacet
  facet normal 0 1 0
    outer loop
      vertex 14.25 5.6 3.0359
      vertex 21.25 5.6 0
      vertex 10.25 5.6 3.0359
    endloop
  endfacet
  facet normal 0 1 0
    outer loop
      vertex 16.25 5.6 6.5
      vertex 21.25 5.6 0
      vertex 14.25 5.6 3.0359
    endloop
  endfacet
  facet normal 0 1 -0
    outer loop
      vertex 21.25 5.6 0
      vertex 16.25 5.6 6.5
      vertex 21.25 5.6 20
    endloop
  endfacet
  facet normal 0 1 -0
    outer loop
      vertex 10.25 5.6 9.9641
      vertex 3.25 5.6 20
      vertex 14.25 5.6 9.9641
    endloop
  endfacet
  facet normal 0 1 -0
    outer loop
      vertex 8.95588 5.6 7.72262
      vertex 3.25 5.6 20
      vertex 10.25 5.6 9.9641
    endloop
  endfacet
  facet normal 0 1 -0
    outer loop
      vertex 8.25 5.6 6.5
      vertex 3.25 5.6 20
      vertex 8.95588 5.6 7.72262
    endloop
  endfacet
  facet normal 0 1 0
    outer loop
      vertex 3.25 5.6 0
      vertex 9.54412 5.6 4.25852
      vertex 10.25 5.6 3.0359
    endloop
  endfacet
  facet normal 0 1 0
    outer loop
      vertex 8.25 5.6 6.5
      vertex 3.25 5.6 0
      vertex 3.25 5.6 20
    endloop
  endfacet
  facet normal 0 1 0
    outer loop
      vertex 9.54412 5.6 4.25852
      vertex 3.25 5.6 0
      vertex 8.25 5.6 6.5
    endloop
  endfacet
  facet normal 0 1 0
    outer loop
      vertex 3.25 5.6 0
      vertex 10.25 5.6 3.0359
      vertex 21.25 5.6 0
    endloop
  endfacet
  facet normal 1 -0 0
    outer loop
      vertex 7.2 3.1 20
      vertex 7.2 3.9 2
      vertex 7.2 3.9 20
    endloop
  endfacet
  facet normal 1 0 0
    outer loop
      vertex 7.2 3.9 2
      vertex 7.2 3.1 20
      vertex 7.2 3.1 2
    endloop
  endfacet
  facet normal -1 0 0
    outer loop
      vertex 17.4 3.1 2
      vertex 17.4 3.9 20
      vertex 17.4 3.9 2
    endloop
  endfacet
  facet normal -1 -0 0
    outer loop
      vertex 17.4 3.9 20
      vertex 17.4 3.1 2
      vertex 17.4 3.1 20
    endloop
  endfacet
  facet normal 0 -1 0
    outer loop
      vertex 7.2 3.9 20
      vertex 10.25 3.9 9.9641
      vertex 17.4 3.9 20
    endloop
  endfacet
  facet normal 0 -1 0
    outer loop
      vertex 7.2 3.9 20
      vertex 9.28922 3.9 8.29997
      vertex 10.25 3.9 9.9641
    endloop
  endfacet
  facet normal 0 -1 0
    outer loop
      vertex 7.2 3.9 20
      vertex 8.25 3.9 6.5
      vertex 9.28922 3.9 8.29997
    endloop
  endfacet
  facet normal 0 -1 -0
    outer loop
      vertex 10.25 3.9 3.0359
      vertex 7.2 3.9 2
      vertex 14.25 3.9 3.0359
    endloop
  endfacet
  facet normal 0 -1 -0
    outer loop
      vertex 9.21078 3.9 4.83587
      vertex 7.2 3.9 2
      vertex 10.25 3.9 3.0359
    endloop
  endfacet
  facet normal 0 -1 -0
    outer loop
      vertex 8.25 3.9 6.5
      vertex 7.2 3.9 2
      vertex 9.21078 3.9 4.83587
    endloop
  endfacet
  facet normal 0 -1 0
    outer loop
      vertex 7.2 3.9 2
      vertex 8.25 3.9 6.5
      vertex 7.2 3.9 20
    endloop
  endfacet
  facet normal 0 -1 0
    outer loop
      vertex 14.25 3.9 9.9641
      vertex 17.4 3.9 20
      vertex 10.25 3.9 9.9641
    endloop
  endfacet
  facet normal 0 -1 0
    outer loop
      vertex 16.25 3.9 6.5
      vertex 17.4 3.9 20
      vertex 14.25 3.9 9.9641
    endloop
  endfacet
  facet normal 0 -1 0
    outer loop
      vertex 16.25 3.9 6.5
      vertex 17.4 3.9 2
      vertex 17.4 3.9 20
    endloop
  endfacet
  facet normal 0 -1 0
    outer loop
      vertex 14.25 3.9 3.0359
      vertex 17.4 3.9 2
      vertex 16.25 3.9 6.5
    endloop
  endfacet
  facet normal 0 -1 0
    outer loop
      vertex 17.4 3.9 2
      vertex 14.25 3.9 3.0359
      vertex 7.2 3.9 2
    endloop
  endfacet
  facet normal -0 0 1
    outer loop
      vertex 7.2 3.9 2
      vertex 17.4 3.1 2
      vertex 17.4 3.9 2
    endloop
  endfacet
  facet normal 0 0 1
    outer loop
      vertex 17.4 3.1 2
      vertex 7.2 3.9 2
      vertex 7.2 3.1 2
    endloop
  endfacet
  facet normal 0 1 0
    outer loop
      vertex 17.4 3.1 20
      vertex 14.25 3.1 9.9641
      vertex 7.2 3.1 20
    endloop
  endfacet
  facet normal 0 1 0
    outer loop
      vertex 17.4 3.1 20
      vertex 16.25 3.1 6.5
      vertex 14.25 3.1 9.9641
    endloop
  endfacet
  facet normal 0 1 0
    outer loop
      vertex 14.25 3.1 3.0359
      vertex 17.4 3.1 2
      vertex 10.25 3.1 3.0359
    endloop
  endfacet
  facet normal 0 1 0
    outer loop
      vertex 16.25 3.1 6.5
      vertex 17.4 3.1 2
      vertex 14.25 3.1 3.0359
    endloop
  endfacet
  facet normal 0 1 -0
    outer loop
      vertex 17.4 3.1 2
      vertex 16.25 3.1 6.5
      vertex 17.4 3.1 20
    endloop
  endfacet
  facet normal 0 1 -0
    outer loop
      vertex 10.25 3.1 9.9641
      vertex 7.2 3.1 20
      vertex 14.25 3.1 9.9641
    endloop
  endfacet
  facet normal 0 1 -0
    outer loop
      vertex 9.44608 3.1 8.57167
      vertex 7.2 3.1 20
      vertex 10.25 3.1 9.9641
    endloop
  endfacet
  facet normal 0 1 -0
    outer loop
      vertex 8.25 3.1 6.5
      vertex 7.2 3.1 20
      vertex 9.44608 3.1 8.57167
    endloop
  endfacet
  facet normal 0 1 0
    outer loop
      vertex 7.2 3.1 2
      vertex 9.05392 3.1 5.10757
      vertex 10.25 3.1 3.0359
    endloop
  endfacet
  facet normal 0 1 0
    outer loop
      vertex 8.25 3.1 6.5
      vertex 7.2 3.1 2
      vertex 7.2 3.1 20
    endloop
  endfacet
  facet normal 0 1 0
    outer loop
      vertex 9.05392 3.1 5.10757
      vertex 7.2 3.1 2
      vertex 8.25 3.1 6.5
    endloop
  endfacet
  facet normal 0 1 0
    outer loop
      vertex 7.2 3.1 2
      vertex 10.25 3.1 3.0359
      vertex 17.4 3.1 2
    endloop
  endfacet
  facet normal -0.866025 0 -0.5
    outer loop
      vertex 16.25 0 6.5
      vertex 14.25 3.1 9.9641
      vertex 16.25 3.1 6.5
    endloop
  endfacet
  facet normal -0.866025 -0 -0.5
    outer loop
      vertex 14.25 3.1 9.9641
      vertex 16.25 0 6.5
      vertex 14.25 0 9.9641
    endloop
  endfacet
  facet normal -0.866025 0 -0.5
    outer loop
      vertex 16.25 5.6 6.5
      vertex 14.25 8.2 9.9641
      vertex 16.25 8.2 6.5
    endloop
  endfacet
  facet normal -0.866025 -0 -0.5
    outer loop
      vertex 14.25 8.2 9.9641
      vertex 16.25 5.6 6.5
      vertex 14.25 5.6 9.9641
    endloop
  endfacet
  facet normal -0.866025 0 -0.5
    outer loop
      vertex 16.25 3.9 6.5
      vertex 14.25 5.6 9.9641
      vertex 16.25 5.6 6.5
    endloop
  endfacet
  facet normal -0.866025 -0 -0.5
    outer loop
      vertex 14.25 5.6 9.9641
      vertex 16.25 3.9 6.5
      vertex 14.25 3.9 9.9641
    endloop
  endfacet
  facet normal -0.866025 0 0.5
    outer loop
      vertex 14.25 0 3.0359
      vertex 16.25 3.1 6.5
      vertex 14.25 3.1 3.0359
    endloop
  endfacet
  facet normal -0.866025 0 0.5
    outer loop
      vertex 16.25 3.1 6.5
      vertex 14.25 0 3.0359
      vertex 16.25 0 6.5
    endloop
  endfacet
  facet normal -0.866025 0 0.5
    outer loop
      vertex 14.25 5.6 3.0359
      vertex 16.25 8.2 6.5
      vertex 14.25 8.2 3.0359
    endloop
  endfacet
  facet normal -0.866025 0 0.5
    outer loop
      vertex 16.25 8.2 6.5
      vertex 14.25 5.6 3.0359
      vertex 16.25 5.6 6.5
    endloop
  endfacet
  facet normal -0.866025 0 0.5
    outer loop
      vertex 14.25 3.9 3.0359
      vertex 16.25 5.6 6.5
      vertex 14.25 5.6 3.0359
    endloop
  endfacet
  facet normal -0.866025 0 0.5
    outer loop
      vertex 16.25 5.6 6.5
      vertex 14.25 3.9 3.0359
      vertex 16.25 3.9 6.5
    endloop
  endfacet
  facet normal -0 0 1
    outer loop
      vertex 10.25 3.1 3.0359
      vertex 14.25 0 3.0359
      vertex 14.25 3.1 3.0359
    endloop
  endfacet
  facet normal 0 0 1
    outer loop
      vertex 14.25 0 3.0359
      vertex 10.25 3.1 3.0359
      vertex 10.25 0 3.0359
    endloop
  endfacet
  facet normal -0 0 1
    outer loop
      vertex 10.25 8.2 3.0359
      vertex 14.25 5.6 3.0359
      vertex 14.25 8.2 3.0359
    endloop
  endfacet
  facet normal 0 0 1
    outer loop
      vertex 14.25 5.6 3.0359
      vertex 10.25 8.2 3.0359
      vertex 10.25 5.6 3.0359
    endloop
  endfacet
  facet normal -0 0 1
    outer loop
      vertex 10.25 5.6 3.0359
      vertex 14.25 3.9 3.0359
      vertex 14.25 5.6 3.0359
    endloop
  endfacet
  facet normal 0 0 1
    outer loop
      vertex 14.25 3.9 3.0359
      vertex 10.25 5.6 3.0359
      vertex 10.25 3.9 3.0359
    endloop
  endfacet
  facet normal 0 0 -1
    outer loop
      vertex 10.25 0 9.9641
      vertex 14.25 3.1 9.9641
      vertex 14.25 0 9.9641
    endloop
  endfacet
  facet normal -0 0 -1
    outer loop
      vertex 14.25 3.1 9.9641
      vertex 10.25 0 9.9641
      vertex 10.25 3.1 9.9641
    endloop
  endfacet
  facet normal 0 0 -1
    outer loop
      vertex 10.25 5.6 9.9641
      vertex 14.25 8.2 9.9641
      vertex 14.25 5.6 9.9641
    endloop
  endfacet
  facet normal -0 0 -1
    outer loop
      vertex 14.25 8.2 9.9641
      vertex 10.25 5.6 9.9641
      vertex 10.25 8.2 9.9641
    endloop
  endfacet
  facet normal 0 0 -1
    outer loop
      vertex 10.25 3.9 9.9641
      vertex 14.25 5.6 9.9641
      vertex 14.25 3.9 9.9641
    endloop
  endfacet
  facet normal -0 0 -1
    outer loop
      vertex 14.25 5.6 9.9641
      vertex 10.25 3.9 9.9641
      vertex 10.25 5.6 9.9641
    endloop
  endfacet
  facet normal 0.866025 -6.08136e-008 0.5
    outer loop
      vertex 10.25 0 3.0359
      vertex 9.05392 3.1 5.10757
      vertex 8.44608 0 6.16038
    endloop
  endfacet
  facet normal 0.866025 0 0.5
    outer loop
      vertex 9.05392 3.1 5.10757
      vertex 10.25 0 3.0359
      vertex 10.25 3.1 3.0359
    endloop
  endfacet
  facet normal 0.866025 -1.76476e-008 0.5
    outer loop
      vertex 10.25 5.6 3.0359
      vertex 10.0539 8.2 3.37552
      vertex 9.54412 5.6 4.25852
    endloop
  endfacet
  facet normal 0.866025 0 0.5
    outer loop
      vertex 10.0539 8.2 3.37552
      vertex 10.25 5.6 3.0359
      vertex 10.25 8.2 3.0359
    endloop
  endfacet
  facet normal 0.866025 -2.6583e-007 0.5
    outer loop
      vertex 10.25 3.9 3.0359
      vertex 9.54412 5.6 4.25852
      vertex 9.21078 3.9 4.83587
    endloop
  endfacet
  facet normal 0.866025 0 0.5
    outer loop
      vertex 9.54412 5.6 4.25852
      vertex 10.25 3.9 3.0359
      vertex 10.25 5.6 3.0359
    endloop
  endfacet
  facet normal 0.866025 0 -0.5
    outer loop
      vertex 10.0539 0 9.62448
      vertex 10.25 3.1 9.9641
      vertex 10.25 0 9.9641
    endloop
  endfacet
  facet normal 0.866026 -7.35908e-010 -0.5
    outer loop
      vertex 10.25 3.1 9.9641
      vertex 10.0539 0 9.62448
      vertex 9.44608 3.1 8.57167
    endloop
  endfacet
  facet normal 0.866025 0 -0.5
    outer loop
      vertex 8.95588 5.6 7.72262
      vertex 10.25 8.2 9.9641
      vertex 10.25 5.6 9.9641
    endloop
  endfacet
  facet normal 0.866025 2.76223e-008 -0.5
    outer loop
      vertex 10.25 8.2 9.9641
      vertex 8.95588 5.6 7.72262
      vertex 8.44608 8.2 6.83962
    endloop
  endfacet
  facet normal 0.866025 0 -0.5
    outer loop
      vertex 9.28922 3.9 8.29997
      vertex 10.25 5.6 9.9641
      vertex 10.25 3.9 9.9641
    endloop
  endfacet
  facet normal 0.866025 -2.13856e-007 -0.5
    outer loop
      vertex 10.25 5.6 9.9641
      vertex 9.28922 3.9 8.29997
      vertex 8.95588 5.6 7.72262
    endloop
  endfacet
  facet normal 0.866025 -7.69092e-008 0.5
    outer loop
      vertex 8.44608 0 6.16038
      vertex 8.25 3.1 6.5
      vertex 8.25 0 6.5
    endloop
  endfacet
  facet normal 0.866025 -1.03637e-007 0.5
    outer loop
      vertex 8.25 3.1 6.5
      vertex 8.44608 0 6.16038
      vertex 9.05392 3.1 5.10757
    endloop
  endfacet
  facet normal 0.866025 -9.16995e-008 0.5
    outer loop
      vertex 9.54412 5.6 4.25852
      vertex 8.25 8.2 6.5
      vertex 8.25 5.6 6.5
    endloop
  endfacet
  facet normal 0.866025 1.032e-008 0.5
    outer loop
      vertex 8.25 8.2 6.5
      vertex 9.54412 5.6 4.25852
      vertex 10.0539 8.2 3.37552
    endloop
  endfacet
  facet normal 0.866025 0 0.5
    outer loop
      vertex 9.21078 3.9 4.83587
      vertex 8.25 5.6 6.5
      vertex 8.25 3.9 6.5
    endloop
  endfacet
  facet normal 0.866025 -3.23204e-007 0.5
    outer loop
      vertex 8.25 5.6 6.5
      vertex 9.21078 3.9 4.83587
      vertex 9.54412 5.6 4.25852
    endloop
  endfacet
  facet normal 0.866026 1.29039e-008 -0.5
    outer loop
      vertex 8.25 0 6.5
      vertex 9.44608 3.1 8.57167
      vertex 10.0539 0 9.62448
    endloop
  endfacet
  facet normal 0.866025 7.69092e-008 -0.5
    outer loop
      vertex 9.44608 3.1 8.57167
      vertex 8.25 0 6.5
      vertex 8.25 3.1 6.5
    endloop
  endfacet
  facet normal 0.866026 8.38749e-008 -0.5
    outer loop
      vertex 8.25 5.6 6.5
      vertex 8.44608 8.2 6.83962
      vertex 8.95588 5.6 7.72262
    endloop
  endfacet
  facet normal 0.866025 9.16994e-008 -0.5
    outer loop
      vertex 8.44608 8.2 6.83962
      vertex 8.25 5.6 6.5
      vertex 8.25 8.2 6.5
    endloop
  endfacet
  facet normal 0.866026 -1.14443e-007 -0.5
    outer loop
      vertex 8.25 3.9 6.5
      vertex 8.95588 5.6 7.72262
      vertex 9.28922 3.9 8.29997
    endloop
  endfacet
  facet normal 0.866026 0 -0.5
    outer loop
      vertex 8.95588 5.6 7.72262
      vertex 8.25 3.9 6.5
      vertex 8.25 5.6 6.5
    endloop
  endfacet
endsolid OpenSCAD_Model
