solid OpenSCAD_Model
  facet normal -0.707107 0.707107 0
    outer loop
      vertex -8.41457 2 0
      vertex -6.41457 4 18.5
      vertex -6.41457 4 0
    endloop
  endfacet
  facet normal -0.707107 0.707107 0
    outer loop
      vertex -6.41457 4 18.5
      vertex -8.41457 2 0
      vertex -8.41457 2 18.5
    endloop
  endfacet
  facet normal 0 0 1
    outer loop
      vertex -5.95 -0.5 20
      vertex -6.41457 -0.5 20
      vertex -5.95 -0.599999 20
    endloop
  endfacet
  facet normal 0 0 1
    outer loop
      vertex 5.95 -0.599999 20
      vertex 6.41457 -0.5 20
      vertex 5.95 -0.5 20
    endloop
  endfacet
  facet normal 0 0 1
    outer loop
      vertex 6.41457 -0.5 20
      vertex 5.95 -0.599999 20
      vertex 7.91457 -2 20
    endloop
  endfacet
  facet normal -0 0 1
    outer loop
      vertex -5.95 -0.599999 20
      vertex 7.91457 -2 20
      vertex 5.95 -0.599999 20
    endloop
  endfacet
  facet normal 0 0 1
    outer loop
      vertex -5.95 -0.599999 20
      vertex -7.91457 -2 20
      vertex 7.91457 -2 20
    endloop
  endfacet
  facet normal 0 0 1
    outer loop
      vertex -7.91457 -2 20
      vertex -5.95 -0.599999 20
      vertex -6.41457 -0.5 20
    endloop
  endfacet
  facet normal 0 0 1
    outer loop
      vertex -5.95 0 20
      vertex -5.05 0.0999994 20
      vertex -5.95 0.0999994 20
    endloop
  endfacet
  facet normal -0 0 1
    outer loop
      vertex 5.15 0.0999994 20
      vertex 5.95 0 20
      vertex 5.95 0.0999994 20
    endloop
  endfacet
  facet normal 0 0 1
    outer loop
      vertex 5.95 0 20
      vertex 5.15 -0.5 20
      vertex 5.95 -0.5 20
    endloop
  endfacet
  facet normal 0 0 1
    outer loop
      vertex 5.95 0 20
      vertex 5.15 0.0999994 20
      vertex 5.15 -0.5 20
    endloop
  endfacet
  facet normal 0 0 1
    outer loop
      vertex 5.95 -0.5 20
      vertex 5.15 -0.5 20
      vertex 5.95 -0.599999 20
    endloop
  endfacet
  facet normal -0 0 1
    outer loop
      vertex -5.05 -0.5 20
      vertex 5.95 -0.599999 20
      vertex 5.15 -0.5 20
    endloop
  endfacet
  facet normal 0 0 1
    outer loop
      vertex -5.05 0.0999994 20
      vertex -5.95 0 20
      vertex -5.05 -0.5 20
    endloop
  endfacet
  facet normal 0 0 1
    outer loop
      vertex -5.95 -0.5 20
      vertex -5.05 -0.5 20
      vertex -5.95 0 20
    endloop
  endfacet
  facet normal 0 0 1
    outer loop
      vertex -5.95 -0.599999 20
      vertex -5.05 -0.5 20
      vertex -5.95 -0.5 20
    endloop
  endfacet
  facet normal 0 0 1
    outer loop
      vertex -5.05 -0.5 20
      vertex -5.95 -0.599999 20
      vertex 5.95 -0.599999 20
    endloop
  endfacet
  facet normal 0 0 1
    outer loop
      vertex 7.91457 1.5 20
      vertex 5.95 0.0999994 20
      vertex 6.41457 0 20
    endloop
  endfacet
  facet normal 0 0 1
    outer loop
      vertex 7.91457 1.5 20
      vertex 5.15 0.299999 20
      vertex 5.95 0.0999994 20
    endloop
  endfacet
  facet normal 0 0 1
    outer loop
      vertex 7.91457 1.5 20
      vertex -5.05 0.299999 20
      vertex 5.15 0.299999 20
    endloop
  endfacet
  facet normal 0 0 1
    outer loop
      vertex -5.05 0.299999 20
      vertex -5.95 0.0999994 20
      vertex -5.05 0.0999994 20
    endloop
  endfacet
  facet normal 0 0 1
    outer loop
      vertex -5.95 0.0999994 20
      vertex -6.41457 0 20
      vertex -5.95 0 20
    endloop
  endfacet
  facet normal 0 0 1
    outer loop
      vertex -7.91457 1.5 20
      vertex -5.95 0.0999994 20
      vertex -5.05 0.299999 20
    endloop
  endfacet
  facet normal 0 0 1
    outer loop
      vertex -5.95 0.0999994 20
      vertex -7.91457 1.5 20
      vertex -6.41457 0 20
    endloop
  endfacet
  facet normal -0 0 1
    outer loop
      vertex -7.91457 1.5 20
      vertex -5.05 0.299999 20
      vertex 7.91457 1.5 20
    endloop
  endfacet
  facet normal 0 0 1
    outer loop
      vertex 6.41457 0 20
      vertex 5.95 0.0999994 20
      vertex 5.95 0 20
    endloop
  endfacet
  facet normal 0 0 1
    outer loop
      vertex 5.95 0.0999994 20
      vertex 5.15 0.299999 20
      vertex 5.15 0.0999994 20
    endloop
  endfacet
  facet normal 0.707107 -0.707107 0
    outer loop
      vertex 7.91457 1.5 20
      vertex 6.41457 0 20
      vertex 7.91457 1.5 18.5
    endloop
  endfacet
  facet normal 0.707107 -0.707107 0
    outer loop
      vertex 7.91457 1.5 18.5
      vertex 8.41457 2 0
      vertex 8.41457 2 18.5
    endloop
  endfacet
  facet normal 0.707107 -0.707107 0
    outer loop
      vertex 6.41457 0 0
      vertex 7.91457 1.5 18.5
      vertex 6.41457 0 20
    endloop
  endfacet
  facet normal 0.707107 -0.707107 0
    outer loop
      vertex 7.91457 1.5 18.5
      vertex 6.41457 0 0
      vertex 8.41457 2 0
    endloop
  endfacet
  facet normal 0 0 -1
    outer loop
      vertex 6.41457 -4.5 0
      vertex 6.41457 -0.5 0
      vertex 8.41457 -2.5 0
    endloop
  endfacet
  facet normal 0 0 -1
    outer loop
      vertex 6.41457 -4.5 0
      vertex 5.95 -0.5 0
      vertex 6.41457 -0.5 0
    endloop
  endfacet
  facet normal 0 0 -1
    outer loop
      vertex 5.95 -0.5 0
      vertex -5.95 -0.5 0
      vertex 5.95 0 0
    endloop
  endfacet
  facet normal 0 0 -1
    outer loop
      vertex 6.41457 -4.5 0
      vertex -5.95 -0.5 0
      vertex 5.95 -0.5 0
    endloop
  endfacet
  facet normal 0 0 -1
    outer loop
      vertex -6.41457 -4.5 0
      vertex -5.95 -0.5 0
      vertex 6.41457 -4.5 0
    endloop
  endfacet
  facet normal 0 0 -1
    outer loop
      vertex -6.41457 -4.5 0
      vertex -6.41457 -0.5 0
      vertex -5.95 -0.5 0
    endloop
  endfacet
  facet normal 0 -0 -1
    outer loop
      vertex -6.41457 -0.5 0
      vertex -6.41457 -4.5 0
      vertex -8.41457 -2.5 0
    endloop
  endfacet
  facet normal 0 0 -1
    outer loop
      vertex 6.41457 0 0
      vertex 6.41457 4 0
      vertex 8.41457 2 0
    endloop
  endfacet
  facet normal 0 0 -1
    outer loop
      vertex 5.95 0 0
      vertex 6.41457 4 0
      vertex 6.41457 0 0
    endloop
  endfacet
  facet normal 0 0 -1
    outer loop
      vertex -5.95 0 0
      vertex 5.95 0 0
      vertex -5.95 -0.5 0
    endloop
  endfacet
  facet normal 0 0 -1
    outer loop
      vertex 5.95 0 0
      vertex -5.95 0 0
      vertex 6.41457 4 0
    endloop
  endfacet
  facet normal 0 0 -1
    outer loop
      vertex -6.41457 4 0
      vertex -5.95 0 0
      vertex -6.41457 0 0
    endloop
  endfacet
  facet normal 0 0 -1
    outer loop
      vertex -5.95 0 0
      vertex -6.41457 4 0
      vertex 6.41457 4 0
    endloop
  endfacet
  facet normal 0 -0 -1
    outer loop
      vertex -6.41457 4 0
      vertex -6.41457 0 0
      vertex -8.41457 2 0
    endloop
  endfacet
  facet normal -0.707107 -0.707107 0
    outer loop
      vertex -8.41457 2 0
      vertex -7.91457 1.5 18.5
      vertex -8.41457 2 18.5
    endloop
  endfacet
  facet normal -0.707107 -0.707107 0
    outer loop
      vertex -6.41457 0 0
      vertex -7.91457 1.5 18.5
      vertex -8.41457 2 0
    endloop
  endfacet
  facet normal -0.707107 -0.707107 -0
    outer loop
      vertex -6.41457 0 20
      vertex -7.91457 1.5 18.5
      vertex -6.41457 0 0
    endloop
  endfacet
  facet normal -0.707107 -0.707107 0
    outer loop
      vertex -7.91457 1.5 18.5
      vertex -6.41457 0 20
      vertex -7.91457 1.5 20
    endloop
  endfacet
  facet normal 0.707107 0.707107 0
    outer loop
      vertex 8.41457 2 18.5
      vertex 6.41457 4 0
      vertex 6.41457 4 18.5
    endloop
  endfacet
  facet normal 0.707107 0.707107 0
    outer loop
      vertex 6.41457 4 0
      vertex 8.41457 2 18.5
      vertex 8.41457 2 0
    endloop
  endfacet
  facet normal 0 1 0
    outer loop
      vertex 6.41457 4 18.5
      vertex 4.05 4 16
      vertex -6.41457 4 18.5
    endloop
  endfacet
  facet normal 0 1 0
    outer loop
      vertex 6.41457 4 18.5
      vertex 4.05 4 4
      vertex 4.05 4 16
    endloop
  endfacet
  facet normal 0 1 0
    outer loop
      vertex 4.05 4 4
      vertex 6.41457 4 0
      vertex -4.05 4 4
    endloop
  endfacet
  facet normal 0 1 -0
    outer loop
      vertex 6.41457 4 0
      vertex 4.05 4 4
      vertex 6.41457 4 18.5
    endloop
  endfacet
  facet normal 0 1 -0
    outer loop
      vertex -4.05 4 16
      vertex -6.41457 4 18.5
      vertex 4.05 4 16
    endloop
  endfacet
  facet normal 0 1 -0
    outer loop
      vertex -4.05 4 4
      vertex -6.41457 4 18.5
      vertex -4.05 4 16
    endloop
  endfacet
  facet normal 0 1 0
    outer loop
      vertex -4.05 4 4
      vertex -6.41457 4 0
      vertex -6.41457 4 18.5
    endloop
  endfacet
  facet normal 0 1 0
    outer loop
      vertex -6.41457 4 0
      vertex -4.05 4 4
      vertex 6.41457 4 0
    endloop
  endfacet
  facet normal 0 -1 0
    outer loop
      vertex -6.41457 0 0
      vertex -5.95 0 20
      vertex -6.41457 0 20
    endloop
  endfacet
  facet normal 0 -1 -0
    outer loop
      vertex -5.95 0 20
      vertex -6.41457 0 0
      vertex -5.95 0 0
    endloop
  endfacet
  facet normal 0 -1 0
    outer loop
      vertex 5.95 0 0
      vertex 6.41457 0 20
      vertex 5.95 0 20
    endloop
  endfacet
  facet normal 0 -1 -0
    outer loop
      vertex 6.41457 0 20
      vertex 5.95 0 0
      vertex 6.41457 0 0
    endloop
  endfacet
  facet normal 0 0 1
    outer loop
      vertex 6.41457 4 18.5
      vertex 7.91457 1.5 18.5
      vertex 8.41457 2 18.5
    endloop
  endfacet
  facet normal -0 0 1
    outer loop
      vertex -6.41457 4 18.5
      vertex 7.91457 1.5 18.5
      vertex 6.41457 4 18.5
    endloop
  endfacet
  facet normal 0 0 1
    outer loop
      vertex -6.41457 4 18.5
      vertex -7.91457 1.5 18.5
      vertex 7.91457 1.5 18.5
    endloop
  endfacet
  facet normal 0 -0 1
    outer loop
      vertex -7.91457 1.5 18.5
      vertex -6.41457 4 18.5
      vertex -8.41457 2 18.5
    endloop
  endfacet
  facet normal 0 1 -0
    outer loop
      vertex 7.91457 1.5 18.5
      vertex -7.91457 1.5 20
      vertex 7.91457 1.5 20
    endloop
  endfacet
  facet normal 0 1 0
    outer loop
      vertex -7.91457 1.5 20
      vertex 7.91457 1.5 18.5
      vertex -7.91457 1.5 18.5
    endloop
  endfacet
  facet normal -1 0 0
    outer loop
      vertex 0 10 0
      vertex 0 19.9 1.5
      vertex 0 19.9 0
    endloop
  endfacet
  facet normal -1 -0 0
    outer loop
      vertex 0 19.9 1.5
      vertex 0 10 0
      vertex 0 10 1.5
    endloop
  endfacet
  facet normal -0 0 1
    outer loop
      vertex 2 19.9 0.5
      vertex 22 10 0.5
      vertex 22 19.9 0.5
    endloop
  endfacet
  facet normal 0 0 1
    outer loop
      vertex 22 10 0.5
      vertex 2 19.9 0.5
      vertex 2 10 0.5
    endloop
  endfacet
  facet normal 1 -0 0
    outer loop
      vertex 22 10 0.5
      vertex 22 19.9 0
      vertex 22 19.9 0.5
    endloop
  endfacet
  facet normal 1 0 0
    outer loop
      vertex 22 19.9 0
      vertex 22 10 0.5
      vertex 22 10 0
    endloop
  endfacet
  facet normal 0 0 -1
    outer loop
      vertex 0 10 0
      vertex 22 19.9 0
      vertex 22 10 0
    endloop
  endfacet
  facet normal -0 0 -1
    outer loop
      vertex 22 19.9 0
      vertex 0 10 0
      vertex 0 19.9 0
    endloop
  endfacet
  facet normal 0 -1 0
    outer loop
      vertex 0 10 1.5
      vertex 2 10 0.5
      vertex 2 10 1.5
    endloop
  endfacet
  facet normal 0 -1 0
    outer loop
      vertex 0 10 0
      vertex 2 10 0.5
      vertex 0 10 1.5
    endloop
  endfacet
  facet normal 0 -1 0
    outer loop
      vertex 22 10 0
      vertex 2 10 0.5
      vertex 0 10 0
    endloop
  endfacet
  facet normal 0 -1 0
    outer loop
      vertex 2 10 0.5
      vertex 22 10 0
      vertex 22 10 0.5
    endloop
  endfacet
  facet normal 0 1 0
    outer loop
      vertex 22 19.9 0.5
      vertex 22 19.9 0
      vertex 2 19.9 0.5
    endloop
  endfacet
  facet normal 0 1 -0
    outer loop
      vertex 2 19.9 0.5
      vertex 0 19.9 1.5
      vertex 2 19.9 1.5
    endloop
  endfacet
  facet normal 0 1 0
    outer loop
      vertex 2 19.9 0.5
      vertex 0 19.9 0
      vertex 0 19.9 1.5
    endloop
  endfacet
  facet normal 0 1 0
    outer loop
      vertex 0 19.9 0
      vertex 2 19.9 0.5
      vertex 22 19.9 0
    endloop
  endfacet
  facet normal -0 0 1
    outer loop
      vertex 0 19.9 1.5
      vertex 2 10 1.5
      vertex 2 19.9 1.5
    endloop
  endfacet
  facet normal 0 0 1
    outer loop
      vertex 2 10 1.5
      vertex 0 19.9 1.5
      vertex 0 10 1.5
    endloop
  endfacet
  facet normal 1 -0 0
    outer loop
      vertex 2 10 1.5
      vertex 2 19.9 0.5
      vertex 2 19.9 1.5
    endloop
  endfacet
  facet normal 1 0 0
    outer loop
      vertex 2 19.9 0.5
      vertex 2 10 1.5
      vertex 2 10 0.5
    endloop
  endfacet
  facet normal -0.707107 -0.707107 0
    outer loop
      vertex -6.41457 -4.5 0
      vertex -8.41457 -2.5 18.5
      vertex -8.41457 -2.5 0
    endloop
  endfacet
  facet normal -0.707107 -0.707107 0
    outer loop
      vertex -8.41457 -2.5 18.5
      vertex -6.41457 -4.5 0
      vertex -6.41457 -4.5 18.5
    endloop
  endfacet
  facet normal 0.707107 0.707107 -0
    outer loop
      vertex 7.91457 -2 18.5
      vertex 6.41457 -0.5 20
      vertex 7.91457 -2 20
    endloop
  endfacet
  facet normal 0.707107 0.707107 0
    outer loop
      vertex 6.41457 -0.5 20
      vertex 7.91457 -2 18.5
      vertex 6.41457 -0.5 0
    endloop
  endfacet
  facet normal 0.707107 0.707107 -0
    outer loop
      vertex 8.41457 -2.5 0
      vertex 7.91457 -2 18.5
      vertex 8.41457 -2.5 18.5
    endloop
  endfacet
  facet normal 0.707107 0.707107 0
    outer loop
      vertex 7.91457 -2 18.5
      vertex 8.41457 -2.5 0
      vertex 6.41457 -0.5 0
    endloop
  endfacet
  facet normal -0.707107 0.707107 0
    outer loop
      vertex -6.41457 -0.5 0
      vertex -7.91457 -2 18.5
      vertex -6.41457 -0.5 20
    endloop
  endfacet
  facet normal -0.707107 0.707107 0
    outer loop
      vertex -8.41457 -2.5 0
      vertex -7.91457 -2 18.5
      vertex -6.41457 -0.5 0
    endloop
  endfacet
  facet normal -0.707107 0.707107 0
    outer loop
      vertex -7.91457 -2 18.5
      vertex -8.41457 -2.5 0
      vertex -8.41457 -2.5 18.5
    endloop
  endfacet
  facet normal -0.707107 0.707107 0
    outer loop
      vertex -6.41457 -0.5 20
      vertex -7.91457 -2 18.5
      vertex -7.91457 -2 20
    endloop
  endfacet
  facet normal 0.707107 -0.707107 0
    outer loop
      vertex 6.41457 -4.5 18.5
      vertex 8.41457 -2.5 0
      vertex 8.41457 -2.5 18.5
    endloop
  endfacet
  facet normal 0.707107 -0.707107 0
    outer loop
      vertex 8.41457 -2.5 0
      vertex 6.41457 -4.5 18.5
      vertex 6.41457 -4.5 0
    endloop
  endfacet
  facet normal 0 -1 0
    outer loop
      vertex -6.41457 -4.5 18.5
      vertex -4.05 -4.5 16
      vertex 6.41457 -4.5 18.5
    endloop
  endfacet
  facet normal 0 -1 0
    outer loop
      vertex -6.41457 -4.5 18.5
      vertex -4.05 -4.5 4
      vertex -4.05 -4.5 16
    endloop
  endfacet
  facet normal 0 -1 -0
    outer loop
      vertex -4.05 -4.5 4
      vertex -6.41457 -4.5 0
      vertex 4.05 -4.5 4
    endloop
  endfacet
  facet normal 0 -1 0
    outer loop
      vertex -6.41457 -4.5 0
      vertex -4.05 -4.5 4
      vertex -6.41457 -4.5 18.5
    endloop
  endfacet
  facet normal 0 -1 0
    outer loop
      vertex 4.05 -4.5 16
      vertex 6.41457 -4.5 18.5
      vertex -4.05 -4.5 16
    endloop
  endfacet
  facet normal 0 -1 0
    outer loop
      vertex 4.05 -4.5 4
      vertex 6.41457 -4.5 18.5
      vertex 4.05 -4.5 16
    endloop
  endfacet
  facet normal 0 -1 0
    outer loop
      vertex 4.05 -4.5 4
      vertex 6.41457 -4.5 0
      vertex 6.41457 -4.5 18.5
    endloop
  endfacet
  facet normal 0 -1 0
    outer loop
      vertex 6.41457 -4.5 0
      vertex 4.05 -4.5 4
      vertex -6.41457 -4.5 0
    endloop
  endfacet
  facet normal 0 1 -0
    outer loop
      vertex -5.95 -0.5 0
      vertex -6.41457 -0.5 20
      vertex -5.95 -0.5 20
    endloop
  endfacet
  facet normal 0 1 0
    outer loop
      vertex -6.41457 -0.5 20
      vertex -5.95 -0.5 0
      vertex -6.41457 -0.5 0
    endloop
  endfacet
  facet normal 0 1 -0
    outer loop
      vertex 6.41457 -0.5 0
      vertex 5.95 -0.5 20
      vertex 6.41457 -0.5 20
    endloop
  endfacet
  facet normal 0 1 0
    outer loop
      vertex 5.95 -0.5 20
      vertex 6.41457 -0.5 0
      vertex 5.95 -0.5 0
    endloop
  endfacet
  facet normal 0 0 1
    outer loop
      vertex 7.91457 -2 18.5
      vertex 6.41457 -4.5 18.5
      vertex 8.41457 -2.5 18.5
    endloop
  endfacet
  facet normal 0 0 1
    outer loop
      vertex 7.91457 -2 18.5
      vertex -6.41457 -4.5 18.5
      vertex 6.41457 -4.5 18.5
    endloop
  endfacet
  facet normal -0 0 1
    outer loop
      vertex -7.91457 -2 18.5
      vertex -6.41457 -4.5 18.5
      vertex 7.91457 -2 18.5
    endloop
  endfacet
  facet normal 0 0 1
    outer loop
      vertex -6.41457 -4.5 18.5
      vertex -7.91457 -2 18.5
      vertex -8.41457 -2.5 18.5
    endloop
  endfacet
  facet normal 0 -1 0
    outer loop
      vertex -7.91457 -2 18.5
      vertex 7.91457 -2 20
      vertex -7.91457 -2 20
    endloop
  endfacet
  facet normal 0 -1 -0
    outer loop
      vertex 7.91457 -2 20
      vertex -7.91457 -2 18.5
      vertex 7.91457 -2 18.5
    endloop
  endfacet
  facet normal -1 0 0
    outer loop
      vertex -5.95 -0.5 0
      vertex -5.95 0 20
      vertex -5.95 0 0
    endloop
  endfacet
  facet normal -1 -0 0
    outer loop
      vertex -5.95 0 20
      vertex -5.95 -0.5 0
      vertex -5.95 -0.5 20
    endloop
  endfacet
  facet normal 1 -0 0
    outer loop
      vertex 5.95 -0.5 20
      vertex 5.95 0 0
      vertex 5.95 0 20
    endloop
  endfacet
  facet normal 1 0 0
    outer loop
      vertex 5.95 0 0
      vertex 5.95 -0.5 20
      vertex 5.95 -0.5 0
    endloop
  endfacet
  facet normal 1 -0 0
    outer loop
      vertex -4.05 0.299999 16
      vertex -4.05 4 4
      vertex -4.05 4 16
    endloop
  endfacet
  facet normal 1 0 0
    outer loop
      vertex -4.05 4 4
      vertex -4.05 0.299999 16
      vertex -4.05 0.299999 4
    endloop
  endfacet
  facet normal 1 -0 0
    outer loop
      vertex -4.05 -4.5 16
      vertex -4.05 -0.5 4
      vertex -4.05 -0.5 16
    endloop
  endfacet
  facet normal 1 0 0
    outer loop
      vertex -4.05 -0.5 4
      vertex -4.05 -4.5 16
      vertex -4.05 -4.5 4
    endloop
  endfacet
  facet normal 0 0 -1
    outer loop
      vertex -4.05 0.299999 16
      vertex 4.05 4 16
      vertex 4.05 0.299999 16
    endloop
  endfacet
  facet normal -0 0 -1
    outer loop
      vertex 4.05 4 16
      vertex -4.05 0.299999 16
      vertex -4.05 4 16
    endloop
  endfacet
  facet normal 0 0 -1
    outer loop
      vertex -4.05 -4.5 16
      vertex 4.05 -0.5 16
      vertex 4.05 -4.5 16
    endloop
  endfacet
  facet normal -0 0 -1
    outer loop
      vertex 4.05 -0.5 16
      vertex -4.05 -4.5 16
      vertex -4.05 -0.5 16
    endloop
  endfacet
  facet normal -1 0 0
    outer loop
      vertex 4.05 0.299999 4
      vertex 4.05 4 16
      vertex 4.05 4 4
    endloop
  endfacet
  facet normal -1 -0 0
    outer loop
      vertex 4.05 4 16
      vertex 4.05 0.299999 4
      vertex 4.05 0.299999 16
    endloop
  endfacet
  facet normal -1 0 0
    outer loop
      vertex 4.05 -4.5 4
      vertex 4.05 -0.5 16
      vertex 4.05 -0.5 4
    endloop
  endfacet
  facet normal -1 -0 0
    outer loop
      vertex 4.05 -0.5 16
      vertex 4.05 -4.5 4
      vertex 4.05 -4.5 16
    endloop
  endfacet
  facet normal -0 0 1
    outer loop
      vertex -4.05 4 4
      vertex 4.05 0.299999 4
      vertex 4.05 4 4
    endloop
  endfacet
  facet normal 0 0 1
    outer loop
      vertex 4.05 0.299999 4
      vertex -4.05 4 4
      vertex -4.05 0.299999 4
    endloop
  endfacet
  facet normal -0 0 1
    outer loop
      vertex -4.05 -0.5 4
      vertex 4.05 -4.5 4
      vertex 4.05 -0.5 4
    endloop
  endfacet
  facet normal 0 0 1
    outer loop
      vertex 4.05 -4.5 4
      vertex -4.05 -0.5 4
      vertex -4.05 -4.5 4
    endloop
  endfacet
  facet normal 1 -0 0
    outer loop
      vertex -5.05 0.0999994 20
      vertex -5.05 0.299999 2
      vertex -5.05 0.299999 20
    endloop
  endfacet
  facet normal 1 0 0
    outer loop
      vertex -5.05 -0.5 2
      vertex -5.05 0.0999994 20
      vertex -5.05 -0.5 20
    endloop
  endfacet
  facet normal 1 0 0
    outer loop
      vertex -5.05 0.0999994 20
      vertex -5.05 -0.5 2
      vertex -5.05 0.299999 2
    endloop
  endfacet
  facet normal -1 0 0
    outer loop
      vertex 5.15 0.299999 2
      vertex 5.15 0.0999994 20
      vertex 5.15 0.299999 20
    endloop
  endfacet
  facet normal -1 0 0
    outer loop
      vertex 5.15 -0.5 2
      vertex 5.15 0.0999994 20
      vertex 5.15 0.299999 2
    endloop
  endfacet
  facet normal -1 -0 0
    outer loop
      vertex 5.15 0.0999994 20
      vertex 5.15 -0.5 2
      vertex 5.15 -0.5 20
    endloop
  endfacet
  facet normal 0 -1 0
    outer loop
      vertex 4.05 0.299999 16
      vertex -5.05 0.299999 20
      vertex -4.05 0.299999 16
    endloop
  endfacet
  facet normal 0 -1 0
    outer loop
      vertex -5.05 0.299999 2
      vertex -4.05 0.299999 16
      vertex -5.05 0.299999 20
    endloop
  endfacet
  facet normal 0 -1 -0
    outer loop
      vertex -4.05 0.299999 4
      vertex -5.05 0.299999 2
      vertex 4.05 0.299999 4
    endloop
  endfacet
  facet normal 0 -1 -0
    outer loop
      vertex -4.05 0.299999 16
      vertex -5.05 0.299999 2
      vertex -4.05 0.299999 4
    endloop
  endfacet
  facet normal 0 -1 0
    outer loop
      vertex -5.05 0.299999 20
      vertex 4.05 0.299999 16
      vertex 5.15 0.299999 20
    endloop
  endfacet
  facet normal 0 -1 0
    outer loop
      vertex 5.15 0.299999 2
      vertex 4.05 0.299999 16
      vertex 4.05 0.299999 4
    endloop
  endfacet
  facet normal 0 -1 0
    outer loop
      vertex 4.05 0.299999 16
      vertex 5.15 0.299999 2
      vertex 5.15 0.299999 20
    endloop
  endfacet
  facet normal 0 -1 0
    outer loop
      vertex 5.15 0.299999 2
      vertex 4.05 0.299999 4
      vertex -5.05 0.299999 2
    endloop
  endfacet
  facet normal -0 0 1
    outer loop
      vertex -5.05 0.299999 2
      vertex 5.15 -0.5 2
      vertex 5.15 0.299999 2
    endloop
  endfacet
  facet normal 0 0 1
    outer loop
      vertex 5.15 -0.5 2
      vertex -5.05 0.299999 2
      vertex -5.05 -0.5 2
    endloop
  endfacet
  facet normal 0 1 0
    outer loop
      vertex 5.15 -0.5 20
      vertex 4.05 -0.5 16
      vertex -5.05 -0.5 20
    endloop
  endfacet
  facet normal 0 1 -0
    outer loop
      vertex 5.15 -0.5 2
      vertex 4.05 -0.5 16
      vertex 5.15 -0.5 20
    endloop
  endfacet
  facet normal 0 1 0
    outer loop
      vertex -5.05 -0.5 2
      vertex 4.05 -0.5 4
      vertex 5.15 -0.5 2
    endloop
  endfacet
  facet normal 0 1 0
    outer loop
      vertex 4.05 -0.5 16
      vertex 5.15 -0.5 2
      vertex 4.05 -0.5 4
    endloop
  endfacet
  facet normal 0 1 -0
    outer loop
      vertex -4.05 -0.5 16
      vertex -5.05 -0.5 20
      vertex 4.05 -0.5 16
    endloop
  endfacet
  facet normal 0 1 0
    outer loop
      vertex -5.05 -0.5 2
      vertex -4.05 -0.5 16
      vertex -4.05 -0.5 4
    endloop
  endfacet
  facet normal 0 1 0
    outer loop
      vertex -4.05 -0.5 16
      vertex -5.05 -0.5 2
      vertex -5.05 -0.5 20
    endloop
  endfacet
  facet normal 0 1 0
    outer loop
      vertex 4.05 -0.5 4
      vertex -5.05 -0.5 2
      vertex -4.05 -0.5 4
    endloop
  endfacet
  facet normal -1 0 0
    outer loop
      vertex 0 30 0
      vertex 0 39.9 1.5
      vertex 0 39.9 0
    endloop
  endfacet
  facet normal -1 -0 0
    outer loop
      vertex 0 39.9 1.5
      vertex 0 30 0
      vertex 0 30 1.5
    endloop
  endfacet
  facet normal 0 0 1
    outer loop
      vertex 22 39.9 0.5
      vertex 20 39 0.5
      vertex 22 30 0.5
    endloop
  endfacet
  facet normal 0 0 1
    outer loop
      vertex 22 39.9 0.5
      vertex 8 39 0.5
      vertex 20 39 0.5
    endloop
  endfacet
  facet normal 0 0 1
    outer loop
      vertex 8 39 0.5
      vertex 2 39.9 0.5
      vertex 8 30.9 0.5
    endloop
  endfacet
  facet normal -0 0 1
    outer loop
      vertex 2 39.9 0.5
      vertex 8 39 0.5
      vertex 22 39.9 0.5
    endloop
  endfacet
  facet normal -0 0 1
    outer loop
      vertex 20 30.9 0.5
      vertex 22 30 0.5
      vertex 20 39 0.5
    endloop
  endfacet
  facet normal -0 0 1
    outer loop
      vertex 8 30.9 0.5
      vertex 22 30 0.5
      vertex 20 30.9 0.5
    endloop
  endfacet
  facet normal 0 0 1
    outer loop
      vertex 8 30.9 0.5
      vertex 2 30 0.5
      vertex 22 30 0.5
    endloop
  endfacet
  facet normal 0 0 1
    outer loop
      vertex 2 30 0.5
      vertex 8 30.9 0.5
      vertex 2 39.9 0.5
    endloop
  endfacet
  facet normal 1 -0 0
    outer loop
      vertex 22 30 0.5
      vertex 22 39.9 0
      vertex 22 39.9 0.5
    endloop
  endfacet
  facet normal 1 0 0
    outer loop
      vertex 22 39.9 0
      vertex 22 30 0.5
      vertex 22 30 0
    endloop
  endfacet
  facet normal 0 0 -1
    outer loop
      vertex 22 30 0
      vertex 20 30.9 0
      vertex 22 39.9 0
    endloop
  endfacet
  facet normal 0 0 -1
    outer loop
      vertex 22 30 0
      vertex 8 30.9 0
      vertex 20 30.9 0
    endloop
  endfacet
  facet normal -0 0 -1
    outer loop
      vertex 8 30.9 0
      vertex 0 30 0
      vertex 8 39 0
    endloop
  endfacet
  facet normal 0 0 -1
    outer loop
      vertex 0 30 0
      vertex 8 30.9 0
      vertex 22 30 0
    endloop
  endfacet
  facet normal 0 0 -1
    outer loop
      vertex 20 39 0
      vertex 22 39.9 0
      vertex 20 30.9 0
    endloop
  endfacet
  facet normal 0 0 -1
    outer loop
      vertex 8 39 0
      vertex 22 39.9 0
      vertex 20 39 0
    endloop
  endfacet
  facet normal 0 0 -1
    outer loop
      vertex 8 39 0
      vertex 0 39.9 0
      vertex 22 39.9 0
    endloop
  endfacet
  facet normal 0 0 -1
    outer loop
      vertex 0 39.9 0
      vertex 8 39 0
      vertex 0 30 0
    endloop
  endfacet
  facet normal 0 -1 0
    outer loop
      vertex 0 30 1.5
      vertex 2 30 0.5
      vertex 2 30 1.5
    endloop
  endfacet
  facet normal 0 -1 0
    outer loop
      vertex 0 30 0
      vertex 2 30 0.5
      vertex 0 30 1.5
    endloop
  endfacet
  facet normal 0 -1 0
    outer loop
      vertex 22 30 0
      vertex 2 30 0.5
      vertex 0 30 0
    endloop
  endfacet
  facet normal 0 -1 0
    outer loop
      vertex 2 30 0.5
      vertex 22 30 0
      vertex 22 30 0.5
    endloop
  endfacet
  facet normal 0 1 0
    outer loop
      vertex 22 39.9 0.5
      vertex 22 39.9 0
      vertex 2 39.9 0.5
    endloop
  endfacet
  facet normal 0 1 -0
    outer loop
      vertex 2 39.9 0.5
      vertex 0 39.9 1.5
      vertex 2 39.9 1.5
    endloop
  endfacet
  facet normal 0 1 0
    outer loop
      vertex 2 39.9 0.5
      vertex 0 39.9 0
      vertex 0 39.9 1.5
    endloop
  endfacet
  facet normal 0 1 0
    outer loop
      vertex 0 39.9 0
      vertex 2 39.9 0.5
      vertex 22 39.9 0
    endloop
  endfacet
  facet normal -1 0 0
    outer loop
      vertex 20 30.9 0
      vertex 20 39 0.5
      vertex 20 39 0
    endloop
  endfacet
  facet normal -1 -0 0
    outer loop
      vertex 20 39 0.5
      vertex 20 30.9 0
      vertex 20 30.9 0.5
    endloop
  endfacet
  facet normal 0 1 -0
    outer loop
      vertex 20 30.9 0
      vertex 8 30.9 0.5
      vertex 20 30.9 0.5
    endloop
  endfacet
  facet normal 0 1 0
    outer loop
      vertex 8 30.9 0.5
      vertex 20 30.9 0
      vertex 8 30.9 0
    endloop
  endfacet
  facet normal 0 -1 0
    outer loop
      vertex 8 39 0
      vertex 20 39 0.5
      vertex 8 39 0.5
    endloop
  endfacet
  facet normal 0 -1 -0
    outer loop
      vertex 20 39 0.5
      vertex 8 39 0
      vertex 20 39 0
    endloop
  endfacet
  facet normal 1 -0 0
    outer loop
      vertex 8 30.9 0.5
      vertex 8 39 0
      vertex 8 39 0.5
    endloop
  endfacet
  facet normal 1 0 0
    outer loop
      vertex 8 39 0
      vertex 8 30.9 0.5
      vertex 8 30.9 0
    endloop
  endfacet
  facet normal -0 0 1
    outer loop
      vertex 0 39.9 1.5
      vertex 2 30 1.5
      vertex 2 39.9 1.5
    endloop
  endfacet
  facet normal 0 0 1
    outer loop
      vertex 2 30 1.5
      vertex 0 39.9 1.5
      vertex 0 30 1.5
    endloop
  endfacet
  facet normal 1 -0 0
    outer loop
      vertex 2 30 1.5
      vertex 2 39.9 0.5
      vertex 2 39.9 1.5
    endloop
  endfacet
  facet normal 1 0 0
    outer loop
      vertex 2 39.9 0.5
      vertex 2 30 1.5
      vertex 2 30 0.5
    endloop
  endfacet
endsolid OpenSCAD_Model
