solid OpenSCAD_Model
  facet normal -0.707107 0.707107 0
    outer loop
      vertex -8.13173 2 0
      vertex -6.13173 4 18.5
      vertex -6.13173 4 0
    endloop
  endfacet
  facet normal -0.707107 0.707107 0
    outer loop
      vertex -6.13173 4 18.5
      vertex -8.13173 2 0
      vertex -8.13173 2 18.5
    endloop
  endfacet
  facet normal 0 0 1
    outer loop
      vertex 7.63173 1.5 20
      vertex -6.13173 0 20
      vertex 6.13173 0 20
    endloop
  endfacet
  facet normal 0 -0 1
    outer loop
      vertex -6.13173 0 20
      vertex 7.63173 1.5 20
      vertex -7.63173 1.5 20
    endloop
  endfacet
  facet normal 0.707107 -0.707107 0
    outer loop
      vertex 7.63173 1.5 20
      vertex 6.13173 0 20
      vertex 7.63173 1.5 18.5
    endloop
  endfacet
  facet normal 0.707107 -0.707107 0
    outer loop
      vertex 7.63173 1.5 18.5
      vertex 8.13173 2 0
      vertex 8.13173 2 18.5
    endloop
  endfacet
  facet normal 0.707107 -0.707107 0
    outer loop
      vertex 6.13173 0 0
      vertex 7.63173 1.5 18.5
      vertex 6.13173 0 20
    endloop
  endfacet
  facet normal 0.707107 -0.707107 0
    outer loop
      vertex 7.63173 1.5 18.5
      vertex 6.13173 0 0
      vertex 8.13173 2 0
    endloop
  endfacet
  facet normal 0.707107 0.707107 0
    outer loop
      vertex 8.13173 2 18.5
      vertex 6.13173 4 0
      vertex 6.13173 4 18.5
    endloop
  endfacet
  facet normal 0.707107 0.707107 0
    outer loop
      vertex 6.13173 4 0
      vertex 8.13173 2 18.5
      vertex 8.13173 2 0
    endloop
  endfacet
  facet normal 0 0 -1
    outer loop
      vertex 6.13173 0 0
      vertex 6.13173 4 0
      vertex 8.13173 2 0
    endloop
  endfacet
  facet normal 0 0 -1
    outer loop
      vertex -6.13173 0 0
      vertex 6.13173 4 0
      vertex 6.13173 0 0
    endloop
  endfacet
  facet normal 0 0 -1
    outer loop
      vertex -6.13173 0 0
      vertex -6.13173 4 0
      vertex 6.13173 4 0
    endloop
  endfacet
  facet normal 0 -0 -1
    outer loop
      vertex -6.13173 4 0
      vertex -6.13173 0 0
      vertex -8.13173 2 0
    endloop
  endfacet
  facet normal -0.707107 -0.707107 0
    outer loop
      vertex -8.13173 2 0
      vertex -7.63173 1.5 18.5
      vertex -8.13173 2 18.5
    endloop
  endfacet
  facet normal -0.707107 -0.707107 0
    outer loop
      vertex -6.13173 0 0
      vertex -7.63173 1.5 18.5
      vertex -8.13173 2 0
    endloop
  endfacet
  facet normal -0.707107 -0.707107 -0
    outer loop
      vertex -6.13173 0 20
      vertex -7.63173 1.5 18.5
      vertex -6.13173 0 0
    endloop
  endfacet
  facet normal -0.707107 -0.707107 0
    outer loop
      vertex -7.63173 1.5 18.5
      vertex -6.13173 0 20
      vertex -7.63173 1.5 20
    endloop
  endfacet
  facet normal 0 1 -0
    outer loop
      vertex 6.13173 4 0
      vertex -6.13173 4 18.5
      vertex 6.13173 4 18.5
    endloop
  endfacet
  facet normal 0 1 0
    outer loop
      vertex -6.13173 4 18.5
      vertex 6.13173 4 0
      vertex -6.13173 4 0
    endloop
  endfacet
  facet normal 0 -1 0
    outer loop
      vertex -6.13173 0 0
      vertex 6.13173 0 20
      vertex -6.13173 0 20
    endloop
  endfacet
  facet normal 0 -1 -0
    outer loop
      vertex 6.13173 0 20
      vertex -6.13173 0 0
      vertex 6.13173 0 0
    endloop
  endfacet
  facet normal 0 0 1
    outer loop
      vertex 6.13173 4 18.5
      vertex 7.63173 1.5 18.5
      vertex 8.13173 2 18.5
    endloop
  endfacet
  facet normal -0 0 1
    outer loop
      vertex -6.13173 4 18.5
      vertex 7.63173 1.5 18.5
      vertex 6.13173 4 18.5
    endloop
  endfacet
  facet normal 0 0 1
    outer loop
      vertex -6.13173 4 18.5
      vertex -7.63173 1.5 18.5
      vertex 7.63173 1.5 18.5
    endloop
  endfacet
  facet normal 0 -0 1
    outer loop
      vertex -7.63173 1.5 18.5
      vertex -6.13173 4 18.5
      vertex -8.13173 2 18.5
    endloop
  endfacet
  facet normal 0 1 -0
    outer loop
      vertex 7.63173 1.5 18.5
      vertex -7.63173 1.5 20
      vertex 7.63173 1.5 20
    endloop
  endfacet
  facet normal 0 1 0
    outer loop
      vertex -7.63173 1.5 20
      vertex 7.63173 1.5 18.5
      vertex -7.63173 1.5 18.5
    endloop
  endfacet
endsolid OpenSCAD_Model
