solid OpenSCAD_Model
  facet normal -0.707107 0.707107 0
    outer loop
      vertex -8.37922 2 0
      vertex -6.37922 4 18.5
      vertex -6.37922 4 0
    endloop
  endfacet
  facet normal -0.707107 0.707107 0
    outer loop
      vertex -6.37922 4 18.5
      vertex -8.37922 2 0
      vertex -8.37922 2 18.5
    endloop
  endfacet
  facet normal 0 0 1
    outer loop
      vertex 7.87922 1.5 20
      vertex -6.37922 0 20
      vertex 6.37922 0 20
    endloop
  endfacet
  facet normal 0 -0 1
    outer loop
      vertex -6.37922 0 20
      vertex 7.87922 1.5 20
      vertex -7.87922 1.5 20
    endloop
  endfacet
  facet normal 0.707107 -0.707107 0
    outer loop
      vertex 7.87922 1.5 20
      vertex 6.37922 0 20
      vertex 7.87922 1.5 18.5
    endloop
  endfacet
  facet normal 0.707107 -0.707107 0
    outer loop
      vertex 7.87922 1.5 18.5
      vertex 8.37922 2 0
      vertex 8.37922 2 18.5
    endloop
  endfacet
  facet normal 0.707107 -0.707107 0
    outer loop
      vertex 6.37922 0 0
      vertex 7.87922 1.5 18.5
      vertex 6.37922 0 20
    endloop
  endfacet
  facet normal 0.707107 -0.707107 0
    outer loop
      vertex 7.87922 1.5 18.5
      vertex 6.37922 0 0
      vertex 8.37922 2 0
    endloop
  endfacet
  facet normal 0 0 -1
    outer loop
      vertex 6.37922 0 0
      vertex 6.37922 4 0
      vertex 8.37922 2 0
    endloop
  endfacet
  facet normal 0 0 -1
    outer loop
      vertex -6.37922 0 0
      vertex 6.37922 4 0
      vertex 6.37922 0 0
    endloop
  endfacet
  facet normal 0 0 -1
    outer loop
      vertex -6.37922 0 0
      vertex -6.37922 4 0
      vertex 6.37922 4 0
    endloop
  endfacet
  facet normal 0 -0 -1
    outer loop
      vertex -6.37922 4 0
      vertex -6.37922 0 0
      vertex -8.37922 2 0
    endloop
  endfacet
  facet normal -0.707107 -0.707107 0
    outer loop
      vertex -8.37922 2 0
      vertex -7.87922 1.5 18.5
      vertex -8.37922 2 18.5
    endloop
  endfacet
  facet normal -0.707107 -0.707107 0
    outer loop
      vertex -6.37922 0 0
      vertex -7.87922 1.5 18.5
      vertex -8.37922 2 0
    endloop
  endfacet
  facet normal -0.707107 -0.707107 -0
    outer loop
      vertex -6.37922 0 20
      vertex -7.87922 1.5 18.5
      vertex -6.37922 0 0
    endloop
  endfacet
  facet normal -0.707107 -0.707107 0
    outer loop
      vertex -7.87922 1.5 18.5
      vertex -6.37922 0 20
      vertex -7.87922 1.5 20
    endloop
  endfacet
  facet normal 0.707107 0.707107 0
    outer loop
      vertex 8.37922 2 18.5
      vertex 6.37922 4 0
      vertex 6.37922 4 18.5
    endloop
  endfacet
  facet normal 0.707107 0.707107 0
    outer loop
      vertex 6.37922 4 0
      vertex 8.37922 2 18.5
      vertex 8.37922 2 0
    endloop
  endfacet
  facet normal 0 1 -0
    outer loop
      vertex 6.37922 4 0
      vertex -6.37922 4 18.5
      vertex 6.37922 4 18.5
    endloop
  endfacet
  facet normal 0 1 0
    outer loop
      vertex -6.37922 4 18.5
      vertex 6.37922 4 0
      vertex -6.37922 4 0
    endloop
  endfacet
  facet normal 0 -1 0
    outer loop
      vertex -6.37922 0 0
      vertex 6.37922 0 20
      vertex -6.37922 0 20
    endloop
  endfacet
  facet normal 0 -1 -0
    outer loop
      vertex 6.37922 0 20
      vertex -6.37922 0 0
      vertex 6.37922 0 0
    endloop
  endfacet
  facet normal 0 0 1
    outer loop
      vertex 6.37922 4 18.5
      vertex 7.87922 1.5 18.5
      vertex 8.37922 2 18.5
    endloop
  endfacet
  facet normal -0 0 1
    outer loop
      vertex -6.37922 4 18.5
      vertex 7.87922 1.5 18.5
      vertex 6.37922 4 18.5
    endloop
  endfacet
  facet normal 0 0 1
    outer loop
      vertex -6.37922 4 18.5
      vertex -7.87922 1.5 18.5
      vertex 7.87922 1.5 18.5
    endloop
  endfacet
  facet normal 0 -0 1
    outer loop
      vertex -7.87922 1.5 18.5
      vertex -6.37922 4 18.5
      vertex -8.37922 2 18.5
    endloop
  endfacet
  facet normal 0 1 -0
    outer loop
      vertex 7.87922 1.5 18.5
      vertex -7.87922 1.5 20
      vertex 7.87922 1.5 20
    endloop
  endfacet
  facet normal 0 1 0
    outer loop
      vertex -7.87922 1.5 20
      vertex 7.87922 1.5 18.5
      vertex -7.87922 1.5 18.5
    endloop
  endfacet
endsolid OpenSCAD_Model
